<?xml version="1.0" standalone="no"?>
<!DOCTYPE svg PUBLIC "-//W3C//DTD SVG 20010904//EN"
 "http://www.w3.org/TR/2001/REC-SVG-20010904/DTD/svg10.dtd">
<svg version="1.0" xmlns="http://www.w3.org/2000/svg"
 width="256.000000pt" height="256.000000pt" viewBox="0 0 256.000000 256.000000"
 preserveAspectRatio="xMidYMid meet">

<g transform="translate(0.000000,256.000000) scale(0.100000,-0.100000)"
fill="#000000" stroke="none">
<path d="M1813 1983 c-26 -31 -70 -81 -98 -111 -27 -30 -57 -64 -65 -76 -8
-11 -45 -51 -82 -88 -61 -61 -68 -71 -67 -105 1 -21 4 -49 8 -63 10 -38 -7
-170 -28 -211 -25 -48 -64 -89 -85 -89 -9 0 -16 -6 -16 -14 0 -8 -13 -28 -30
-46 -33 -36 -41 -32 -11 6 27 34 34 100 17 155 -10 34 -11 50 -3 58 6 6 8 14
4 17 -4 4 -30 -15 -59 -41 -131 -121 -218 -206 -218 -216 0 -6 5 -7 10 -4 6 3
22 -3 36 -14 37 -29 75 -34 128 -16 61 21 69 15 14 -10 -36 -15 -39 -19 -23
-25 38 -14 -132 -43 -256 -44 -123 -1 -144 -12 -30 -16 86 -3 74 -3 166 8 97
12 179 35 263 73 72 33 82 35 82 13 0 -52 -93 -184 -160 -226 -66 -43 -282
-70 -384 -48 -48 10 -69 21 -108 58 -51 48 -114 162 -104 188 6 16 -41 94 -56
94 -6 0 2 -20 17 -45 14 -25 25 -51 22 -58 -2 -7 5 -29 15 -49 11 -21 16 -43
12 -49 -5 -8 -3 -9 6 -4 10 6 12 4 7 -8 -4 -10 -2 -16 4 -14 6 1 19 -12 28
-30 9 -17 23 -34 31 -37 8 -4 33 -17 55 -31 39 -24 39 -25 13 -25 -20 0 -26
-4 -22 -15 3 -8 -1 -22 -10 -30 -9 -9 -16 -28 -16 -41 0 -14 -7 -38 -15 -55
-9 -16 -13 -35 -9 -42 4 -7 -2 -4 -13 6 -17 14 -25 16 -49 7 -49 -19 -102 -87
-110 -140 -1 -8 -6 -35 -13 -60 -6 -25 -11 -60 -11 -77 0 -21 -5 -33 -14 -33
-8 0 -16 -6 -19 -14 -8 -19 31 -34 76 -28 20 2 43 0 50 -6 7 -6 40 -6 85 -1
84 9 112 17 112 30 0 5 30 23 68 40 l67 31 145 -7 c131 -6 223 1 308 22 19 4
22 1 22 -27 0 -36 14 -67 44 -95 22 -21 37 -22 239 -16 l57 1 -19 35 c-18 35
-18 37 0 108 11 40 22 110 24 157 3 47 13 154 22 238 14 130 19 152 32 147 21
-8 130 -71 159 -91 21 -16 22 -16 22 15 0 34 2 34 59 13 11 -4 12 2 7 31 -7
40 -5 42 25 27 22 -12 22 -12 8 29 -6 17 -15 31 -20 31 -5 0 -18 20 -29 45
-11 25 -24 45 -31 45 -6 0 -8 7 -5 16 4 10 2 13 -6 8 -8 -5 -9 -2 -5 10 5 11
3 15 -5 10 -8 -5 -9 -2 -5 9 4 10 2 16 -5 14 -7 -1 -13 5 -14 13 -3 37 -5 41
-14 35 -5 -3 -11 -1 -11 4 -1 6 -2 15 -3 20 -2 20 -98 121 -108 115 -6 -4 -8
-2 -4 4 4 6 -14 25 -41 43 -79 54 -93 70 -93 111 0 54 -16 87 -45 94 -30 7
-29 4 -11 40 8 16 48 107 89 202 82 187 82 212 0 115z m-473 -664 c13 -48 6
-88 -22 -124 -39 -50 -111 -69 -172 -45 -32 12 -32 22 -2 55 20 22 25 23 36
10 27 -32 50 -12 50 45 0 21 11 37 43 64 23 20 45 36 49 36 4 0 12 -18 18 -41z
m-130 -79 c0 -5 -4 -10 -10 -10 -5 0 -10 5 -10 10 0 6 5 10 10 10 6 0 10 -4
10 -10z m90 -140 c-8 -5 -19 -10 -25 -10 -5 0 -3 5 5 10 8 5 20 10 25 10 6 0
3 -5 -5 -10z"/>
<path d="M1262 1987 c-1 -15 -11 -47 -23 -72 -12 -25 -19 -51 -16 -59 3 -7 0
-19 -6 -26 -7 -7 7 -2 30 10 25 14 39 28 35 34 -4 6 -10 40 -13 76 -3 36 -7
53 -7 37z"/>
<path d="M1290 1825 c-25 -26 -30 -35 -17 -35 31 0 87 33 87 52 0 29 -32 21
-70 -17z"/>
<path d="M1392 1828 c-29 -17 -51 -32 -49 -34 6 -6 66 21 102 46 45 30 7 22
-53 -12z"/>
<path d="M754 1363 c-1 -16 -4 -48 -9 -73 -10 -60 8 -121 46 -159 40 -40 85
-41 131 -4 18 15 35 28 37 30 2 1 -33 42 -79 90 -45 48 -89 100 -98 115 -21
35 -27 35 -28 1z m86 -128 c0 -16 5 -37 10 -45 8 -13 11 -13 22 3 13 17 14 17
36 -3 28 -26 28 -35 0 -54 -46 -32 -104 -13 -133 44 -15 30 -20 115 -8 146 10
27 73 -51 73 -91z m30 -9 c0 -3 -4 -8 -10 -11 -5 -3 -10 -1 -10 4 0 6 5 11 10
11 6 0 10 -2 10 -4z"/>
<path d="M598 1332 c-1 -4 -25 -22 -52 -40 -27 -17 -43 -32 -35 -32 10 -1 9
-3 -3 -11 -10 -5 -18 -16 -18 -24 0 -8 -6 -18 -13 -22 -20 -11 -30 -60 -14
-66 9 -3 8 -21 -7 -78 -10 -41 -23 -77 -28 -80 -10 -7 -30 -118 -22 -130 3 -5
20 2 37 15 18 13 47 28 66 35 65 21 122 61 116 80 -3 9 -6 94 -6 189 -2 149
-7 195 -21 164z"/>
<path d="M739 1096 c16 -20 96 -50 113 -43 8 3 5 6 -7 6 -11 1 -33 9 -50 19
-16 10 -39 21 -49 25 -16 6 -17 5 -7 -7z"/>
</g>
</svg>
